<svg xmlns="http://www.w3.org/2000/svg" version="1.1" xmlns:xlink="http://www.w3.org/1999/xlink" xmlns:svgjs="http://svgjs.com/svgjs" width="512" height="512" x="0" y="0" viewBox="0 0 512 512" style="enable-background:new 0 0 512 512" xml:space="preserve" class=""><g><g xmlns="http://www.w3.org/2000/svg" fill-rule="evenodd"><g fill="#5eb2fc"><path d="m152.581 207.5a85.617 85.617 0 0 1 73.462-21.916l3.924.691-103.127 97.225-.459-3.959a85.729 85.729 0 0 1 26.2-72.041z" fill="#60ca60" data-original="#5eb2fc" class=""></path><path d="m166.484 30.576a85.3 85.3 0 0 1 69.042 117.29l-1.394 3.379-2.094-3q-2.519-3.6-5.317-7l-.1-.127-64.095-111.006z" fill="#60ca60" data-original="#5eb2fc" class=""></path><path d="m276.485 147.881a85.461 85.461 0 0 1 -6.472-32.324v-.425a85.305 85.305 0 0 1 75.505-84.556l3.957-.464-64.118 111.058-.1.126q-2.775 3.381-5.282 6.97l-2.1 2.986z" fill="#60ca60" data-original="#5eb2fc" class=""></path><path d="m372.888 127.768a85.579 85.579 0 0 1 68.488 34.447l2.381 3.195h-98.373l-.372-.157a114.11 114.11 0 0 0 -31.987-8.284l-4.092-.444 2.878-2.942a85.626 85.626 0 0 1 61.077-25.815z" fill="#60ca60" data-original="#5eb2fc" class=""></path><path d="m359.425 207.5a85.7 85.7 0 0 1 26.191 72.042l-.46 3.956-103.121-97.224 3.924-.691a85.63 85.63 0 0 1 73.466 21.917z" fill="#60ca60" data-original="#5eb2fc" class=""></path><path d="m199.009 156.964a114.305 114.305 0 0 0 -32.025 8.29l-.372.156h-98.367l2.381-3.194a85.281 85.281 0 0 1 129.6-8.636l2.871 2.943z" fill="#60ca60" data-original="#5eb2fc" class=""></path></g><path d="m345.789 163.41a116.049 116.049 0 0 0 -32.548-8.429 83.24 83.24 0 0 1 126.531 8.429zm37.84 115.9-97.323-91.757a83.29 83.29 0 0 1 97.323 91.757zm-118.6-66.587 1.811 25.109c-3.661.236-7.406.363-11.179.363s-7.515-.127-11.171-.363l1.854-25.774 9.656-9.1 9 8.486c0 .424 0 .849.029 1.278zm-37.989 267.277 1.378-19.047a203.313 203.313 0 0 0 54.5.009l1.369 19.038zm44.4-178.325c-5.075.471-10.349.717-15.778.717s-10.7-.26-15.77-.727l2.3-31.906c4.4.283 8.892.438 13.473.438s9.08-.155 13.476-.438l2.3 31.916zm-38.44 95.652a203.491 203.491 0 0 0 45.336 0l2.278 31.609a168.727 168.727 0 0 1 -49.888 0zm43.034-31.949a172.07 172.07 0 0 1 -40.732.015l2.288-31.78c5.844.519 11.892.779 18.076.779s12.221-.283 18.076-.807zm-147.666-86.068a83.3 83.3 0 0 1 97.332-91.757zm10.74-149.542a83.467 83.467 0 0 1 59.686 25.208 116.3 116.3 0 0 0 -32.586 8.434h-93.979a83.579 83.579 0 0 1 66.879-33.642zm89.715-56.1a83.58 83.58 0 0 0 -62.572-41.1l62.015 107.418q2.831 3.445 5.411 7.123a83.139 83.139 0 0 0 -4.854-73.441zm54.351 0a83.228 83.228 0 0 0 -11.161 41.473v.415a83.408 83.408 0 0 0 6.321 31.567q2.562-3.651 5.373-7.09l62.044-107.47a83.584 83.584 0 0 0 -62.577 41.1zm198.217 100.318a115.618 115.618 0 0 0 -108.5-76.219 114.3 114.3 0 0 0 -30.189 4.081l44.053-76.295a16.01 16.01 0 0 0 -11.036-23.746 115.6 115.6 0 0 0 -119.719 54.964 115.621 115.621 0 0 0 -119.722-54.964 16 16 0 0 0 -11.024 23.746l44.02 76.247a115.259 115.259 0 0 0 -138.669 72.186 16 16 0 0 0 15.053 21.425h77.153a115.669 115.669 0 0 0 -17.472 120.15 16 16 0 0 0 25.651 5.26l80.941-76.309-18.043 250.337a16.006 16.006 0 0 0 15.963 17.151h91.63a16 16 0 0 0 15.958-17.151l-18.09-251.017 81.662 76.989a16 16 0 0 0 25.652-5.26 115.669 115.669 0 0 0 -17.472-120.15h77.148a16 16 0 0 0 15.052-21.425z" fill="#ffffff" data-original="#4b6274" class=""></path></g></g></svg>